<svg width="67" height="67" viewBox="0 0 67 67" fill="none" xmlns="http://www.w3.org/2000/svg">
<circle r="33.5" transform="matrix(1 0 0 -1 33.5 33.5)" fill="white"/>
<g clip-path="url(#clip0)">
<path d="M46.16 26.69H36.41L38.2199 19.69C38.3268 19.2763 38.3375 18.8437 38.2513 18.4252C38.1651 18.0068 37.9844 17.6136 37.7228 17.2758C37.4612 16.938 37.1258 16.6645 36.7423 16.4763C36.3587 16.2881 35.9372 16.1902 35.51 16.19H34.8899C34.7118 16.1913 34.5371 16.2402 34.3842 16.3316C34.2312 16.423 34.1055 16.5537 34.0199 16.71C32.2099 20.16 25.6999 26.19 25.6999 26.19H20.4699C20.2327 26.19 19.9978 26.2369 19.7788 26.328C19.5598 26.4191 19.3609 26.5525 19.1936 26.7207C19.0263 26.8889 18.894 27.0886 18.8041 27.3081C18.7142 27.5276 18.6686 27.7628 18.6699 28V44C18.6699 44.4774 18.8596 44.9352 19.1972 45.2728C19.5347 45.6104 19.9926 45.8 20.4699 45.8H42.87C43.9529 45.8024 45.0021 45.4226 45.8325 44.7275C46.663 44.0323 47.2216 43.0665 47.41 42L49.32 30.46C49.4036 29.9981 49.3845 29.5234 49.2642 29.0696C49.1438 28.6159 48.9251 28.1941 48.6236 27.8344C48.322 27.4746 47.945 27.1856 47.5192 26.9878C47.0935 26.79 46.6294 26.6884 46.16 26.69Z" stroke="#C92A38" stroke-width="3" stroke-linecap="round" stroke-linejoin="round"/>
<path d="M25.6899 45.8V26.2" stroke="#C92A38" stroke-width="3" stroke-linecap="round" stroke-linejoin="round"/>
</g>
<defs>
<clipPath id="clip0">
<rect width="44" height="55" fill="white" transform="translate(11 9)"/>
</clipPath>
</defs>
</svg>
