<svg width="40" height="32" viewBox="0 0 40 32" fill="none" xmlns="http://www.w3.org/2000/svg">
<path d="M5.87555 3.0946L11.9696 5.51758H27.9834L34.2186 3.0946L27.9834 0.810059H11.8983L5.87555 3.0946Z" fill="#CD2B37"/>
<path d="M4.24577 3.92627L10.9065 6.55815L9.41841 12.3062L0.584961 8.38198L4.24577 3.92627Z" fill="#CD2B37"/>
<path d="M12.4417 6.85693L10.9065 12.5806H20.0114H29.1168L27.6529 6.85693H12.4417Z" fill="#CD2B37"/>
<path d="M29.1168 6.58138L30.5336 12.3062L39.415 8.33597L35.777 3.92627L29.1168 6.58138Z" fill="#CD2B37"/>
<path d="M30.6286 13.7837L39.037 10.1826L22.1727 30.2661L30.6286 13.7837Z" fill="#CD2B37"/>
<path d="M10.9065 14.0142H28.8814L20.0114 31.2363L10.9065 14.0142Z" fill="#CD2B37"/>
<path d="M9.41839 13.8311L17.9922 30.269L1.09271 10.022L9.41839 13.8311Z" fill="#CD2B37"/>
</svg>
