<svg width="67" height="72" viewBox="0 0 67 72" fill="none" xmlns="http://www.w3.org/2000/svg">
<circle r="33.5" transform="matrix(1 0 0 -1 33.5 33.5)" fill="white"/>
<path d="M40.5 12.528C36.3757 12.528 33 15.9306 33 20.088C33 20.7375 33.0952 21.3595 33.25 21.9622L24.1094 28.2465C22.8356 27.2411 21.2333 26.64 19.5 26.64C15.3757 26.64 12 30.0425 12 34.2C12 38.3573 15.3757 41.76 19.5 41.76C21.2411 41.76 22.8484 41.1512 24.125 40.1377L33.25 46.422C33.0928 47.029 33 47.6571 33 48.312C33 52.4693 36.3757 55.872 40.5 55.872C44.6244 55.872 48 52.4693 48 48.312C48 44.1546 44.6244 40.752 40.5 40.752C38.1089 40.752 35.9697 41.8944 34.5938 43.6657L26.0781 37.8225C26.6676 36.7442 27 35.5115 27 34.2C27 32.8807 26.6584 31.6443 26.0625 30.5617L34.5938 24.7185C35.9694 26.4954 38.1045 27.648 40.5 27.648C44.6244 27.648 48 24.2453 48 20.088C48 15.9306 44.6244 12.528 40.5 12.528ZM40.5 15.552C43.003 15.552 45 17.5649 45 20.088C45 22.611 43.003 24.624 40.5 24.624C37.997 24.624 36 22.611 36 20.088C36 17.5649 37.997 15.552 40.5 15.552ZM19.5 29.664C22.0031 29.664 24 31.6769 24 34.2C24 36.723 22.0031 38.736 19.5 38.736C16.997 38.736 15 36.723 15 34.2C15 31.6769 16.997 29.664 19.5 29.664ZM40.5 43.776C43.003 43.776 45 45.7889 45 48.312C45 50.835 43.003 52.848 40.5 52.848C37.997 52.848 36 50.835 36 48.312C36 45.7889 37.997 43.776 40.5 43.776Z" fill="#C92A38"/>
</svg>
