<svg width="34" height="33" viewBox="0 0 34 33" fill="none" xmlns="http://www.w3.org/2000/svg">
<path d="M32.6852 29.1475L18.4758 15.1052L16.0442 15.8489L15.2885 18.2619L29.4944 32.3007C29.926 32.7207 30.4883 32.9533 31.0898 32.9533C31.6914 32.9533 32.2537 32.7207 32.6787 32.3007C33.1102 31.8807 33.3456 31.325 33.3456 30.7306C33.3456 30.1361 33.1102 29.574 32.6852 29.1475Z" fill="#CD2B37"/>
<path d="M21.8314 12.3475C21.8706 12.102 21.766 11.8564 21.5633 11.7143L16.1102 7.90198L16.1887 1.29831C16.1887 1.05276 16.0514 0.826627 15.8291 0.716752C15.6133 0.606917 15.3452 0.626281 15.1425 0.774924L9.78752 4.71645L3.46484 2.59708C3.22946 2.51955 2.96791 2.57768 2.79135 2.75215C2.61484 2.92663 2.55598 3.18506 2.63444 3.41767L4.77907 9.66601L0.784042 14.9644C0.63367 15.1647 0.614076 15.4297 0.725219 15.6429C0.836361 15.8626 1.0456 15.9789 1.31366 15.9983L8.00253 15.9143L11.8602 21.3032C11.9844 21.4777 12.1871 21.5746 12.3964 21.5746C12.429 21.5746 12.4618 21.5746 12.501 21.5681C12.7429 21.5294 12.9456 21.3549 13.0241 21.1223L14.9987 14.8158L21.3802 12.8644C21.6156 12.7869 21.7921 12.5866 21.8314 12.3475Z" fill="#CD2B37"/>
</svg>
