<svg width="30" height="30" viewBox="0 0 30 30" fill="none" xmlns="http://www.w3.org/2000/svg">
<path d="M29.8842 0.0463876C29.8842 0.0463876 18.7378 0.0208983 10.0482 8.51745C9.64719 8.9095 9.29713 9.33433 8.98057 9.77615C7.44002 9.65599 5.07892 9.69968 3.87478 10.8795C1.05685 13.6348 0.117126 18.2278 0.117126 18.2278L6.68899 17.3102V19.0847L10.4131 22.7261H12.228L11.2883 29.1531C11.2883 29.1531 15.9857 28.2343 18.8036 25.479C20.009 24.3004 20.0537 21.993 19.932 20.4867C20.3839 20.1771 20.8184 19.8361 21.2193 19.4428C29.909 10.9462 29.8842 0.0463876 29.8842 0.0463876ZM17.4952 9.73246C17.4952 8.39121 18.6062 7.30487 19.978 7.30487C21.3497 7.30487 22.4607 8.39121 22.4607 9.73246C22.4607 11.0737 21.3497 12.16 19.978 12.16C18.6062 12.16 17.4952 11.0737 17.4952 9.73246Z" fill="#CD2B37"/>
<path d="M7.62371 23.9531C6.48289 25.0685 5.03668 24.3366 5.03668 24.3366C5.03668 24.3366 4.33158 22.8801 5.42896 21.8071C5.5233 21.7148 5.63875 21.6626 5.74923 21.5995L4.98578 20.853C4.5873 20.9865 4.21116 21.1977 3.89337 21.5085C2.77861 22.5985 2.84316 26.4814 2.84316 26.4814C2.84316 26.4814 6.81558 26.5433 7.92909 25.4545C8.24689 25.1438 8.46289 24.776 8.59944 24.3864L7.83723 23.6411C7.77144 23.7479 7.71806 23.8608 7.62371 23.9531Z" fill="#CD2B37"/>
</svg>
