<svg width="32" height="33" viewBox="0 0 32 33" fill="none" xmlns="http://www.w3.org/2000/svg">
<path d="M7.1784 0C5.27632 0.00589492 3.45378 0.790256 2.1088 2.18178C0.763821 3.57331 0.00569772 5.45893 0 7.42684V25.415C0.00569772 27.3829 0.763821 29.2685 2.1088 30.66C3.45378 32.0515 5.27632 32.8359 7.1784 32.8418H24.5648C26.4669 32.8359 28.2894 32.0515 29.6344 30.66C30.9794 29.2685 31.7375 27.3829 31.7432 25.415V7.42684C31.7375 5.45893 30.9794 3.57331 29.6344 2.18178C28.2894 0.790256 26.4669 0.00589492 24.5648 0H7.1784ZM15.8716 24.4586C14.3335 24.4587 12.83 23.987 11.551 23.1031C10.2721 22.2191 9.27527 20.9626 8.68657 19.4925C8.09787 18.0224 7.94376 16.4047 8.24372 14.8439C8.54369 13.2832 9.28425 11.8495 10.3718 10.7243C11.4593 9.59901 12.8449 8.83266 14.3534 8.52216C15.8619 8.21165 17.4255 8.37093 18.8465 8.97985C20.2675 9.58878 21.4821 10.62 22.3366 11.9431C23.1911 13.2662 23.6472 14.8217 23.6472 16.413C23.6472 18.5467 22.828 20.593 21.3698 22.1018C19.9116 23.6106 17.9339 24.4583 15.8716 24.4586ZM25.576 8.82438C25.1426 8.82438 24.7189 8.69142 24.3586 8.44229C23.9982 8.19317 23.7174 7.83908 23.5516 7.42481C23.3857 7.01054 23.3423 6.5547 23.4269 6.11492C23.5115 5.67515 23.7202 5.2712 24.0267 4.95417C24.3332 4.63714 24.7237 4.42125 25.1488 4.33383C25.5738 4.2464 26.0144 4.29135 26.4148 4.463C26.8152 4.63465 27.1574 4.92529 27.3981 5.29815C27.6388 5.67102 27.7673 6.10937 27.7672 6.55776C27.7672 6.85546 27.7105 7.15023 27.6004 7.42526C27.4903 7.70028 27.3289 7.95017 27.1254 8.16065C26.9219 8.37113 26.6803 8.53808 26.4145 8.65197C26.1487 8.76585 25.8637 8.82444 25.576 8.82438Z" fill="#CD2B37"/>
</svg>
