<svg width="35" height="31" viewBox="0 0 35 31" fill="none" xmlns="http://www.w3.org/2000/svg">
<path d="M2.96555 2.94109C2.02535 3.87353 1.27955 4.9805 0.77072 6.19879C0.261891 7.41708 0 8.72284 0 10.0415C0 11.3602 0.261891 12.6659 0.77072 13.8842C1.27955 15.1025 2.02535 16.2095 2.96555 17.1419L15.6935 29.7649C15.9024 29.9721 16.1504 30.1365 16.4234 30.2486C16.6964 30.3607 16.989 30.4185 17.2845 30.4185C17.5799 30.4185 17.8725 30.3607 18.1455 30.2486C18.4185 30.1365 18.6665 29.9721 18.8755 29.7649L31.6034 17.1419C32.5436 16.2095 33.2894 15.1025 33.7982 13.8842C34.307 12.6659 34.5689 11.3602 34.5689 10.0415C34.5689 8.72284 34.307 7.41708 33.7982 6.19879C33.2894 4.9805 32.5436 3.87353 31.6034 2.94109C30.6632 2.00865 29.547 1.269 28.3186 0.764364C27.0902 0.259731 25.7736 0 24.4439 0C23.1143 0 21.7977 0.259731 20.5692 0.764364C19.3408 1.269 18.2247 2.00865 17.2845 2.94109C16.3443 2.00865 15.2281 1.269 13.9997 0.764364C12.7713 0.259731 11.4546 0 10.125 0C8.79537 0 7.47875 0.259731 6.25033 0.764364C5.02191 1.269 3.90574 2.00865 2.96555 2.94109Z" fill="#CD2B37"/>
</svg>
