<svg width="67" height="69" viewBox="0 0 67 69" fill="none" xmlns="http://www.w3.org/2000/svg">
<circle r="33.5" transform="matrix(1 0 0 -1 33.5 33.5)" fill="white"/>
<path d="M34.0505 35.671C33.1875 35.671 12.9175 35.733 12.9175 41.1097C12.9175 45.3307 25.2785 46.2706 30.55 46.4793L28.817 48.2166C28.36 48.6732 28.358 49.4176 28.812 49.8783V49.8793C29.266 50.3399 30.0045 50.343 30.461 49.8843L33.782 46.5569C34.2385 46.0993 34.279 45.3206 33.8645 44.8237C33.0255 43.8187 31.6685 42.2044 30.8255 41.2009C30.409 40.707 29.673 40.6445 29.182 41.0658C28.6915 41.4862 28.631 42.2276 29.048 42.7225L30.2205 44.1155C22.7855 43.8106 18.1465 42.6842 16.2305 41.7689C15.6485 41.4912 15.6425 40.7206 16.2245 40.4409C18.5335 39.3366 24.7085 38.0212 34.051 38.0212C43.394 38.0212 49.5685 39.3371 51.877 40.4409C52.459 40.7196 52.453 41.4912 51.87 41.7689C49.87 42.723 44.913 43.9109 36.8985 44.1528C36.2555 44.1725 35.742 44.7072 35.754 45.3569C35.7655 46.0055 36.2965 46.5226 36.9405 46.5015C41.791 46.3422 55.1835 45.5026 55.1835 41.1092C55.183 35.733 34.9135 35.671 34.0505 35.671Z" fill="#C92A38"/>
<path d="M16.1145 33.7291V31.4097H16.374C17.611 32.1233 18.7695 32.4791 19.8495 32.4791C20.703 32.4791 21.37 32.3012 21.8505 31.9444C22.331 31.5881 22.5715 31.0664 22.5715 30.3805C22.5715 29.8362 22.384 29.4153 22.0085 29.119C21.633 28.8226 20.857 28.6739 19.6795 28.6739H18.9665V26.8202H19.639C21.4535 26.8202 22.361 26.2623 22.361 25.1459C22.361 24.6777 22.1665 24.3224 21.7775 24.0805C21.3885 23.8381 20.835 23.7171 20.1165 23.7171C19.1495 23.7171 18.0155 24.0654 16.714 24.7624H16.471V22.4677C17.843 21.9506 19.1635 21.6915 20.4325 21.6915C21.934 21.6915 23.0695 21.9692 23.839 22.5246C24.6085 23.08 24.9935 23.8174 24.9935 24.7377C24.9935 25.4236 24.78 26.0239 24.3535 26.5385C23.9265 27.0531 23.357 27.3973 22.644 27.5717V27.6861C23.4595 27.8333 24.105 28.1528 24.5805 28.6457C25.056 29.1386 25.2935 29.7742 25.2935 30.5529C25.2935 31.7504 24.84 32.709 23.9325 33.4277C23.025 34.1464 21.7965 34.5057 20.246 34.5057C18.7445 34.5047 17.367 34.2457 16.1145 33.7291Z" fill="#C92A38"/>
<path d="M35.7605 21.8956V24.0024H35.525C35.0125 23.7519 34.393 23.6269 33.6695 23.6269C31.461 23.6269 30.2295 24.7921 29.9755 27.1221C31.045 26.4795 32.0115 26.1585 32.8755 26.1585C34.07 26.1585 35.032 26.5042 35.764 27.1957C36.4955 27.8872 36.8615 28.8564 36.8615 30.1033C36.8615 31.3991 36.423 32.4565 35.545 33.2755C34.667 34.0955 33.54 34.5047 32.1625 34.5047C30.58 34.5047 29.369 34.0133 28.529 33.03C27.689 32.0477 27.269 30.6285 27.269 28.7717C27.269 26.4906 27.824 24.7402 28.934 23.5205C30.044 22.3014 31.6545 21.6915 33.7665 21.6915C34.5125 21.6915 35.177 21.7596 35.7605 21.8956ZM29.968 28.4532L29.9595 28.7878C29.954 28.9673 29.9515 29.1119 29.9515 29.2208C29.9515 31.5185 30.6915 32.6666 32.1715 32.6666C32.7655 32.6666 33.245 32.455 33.609 32.0296C33.974 31.6052 34.156 31.009 34.156 30.2414C34.156 28.744 33.3805 27.9956 31.831 27.9956C31.2265 27.9961 30.605 28.1483 29.968 28.4532Z" fill="#C92A38"/>
<path d="M43.1736 34.5047C41.5156 34.5047 40.2991 33.9967 39.5241 32.9821C38.7486 31.9661 38.3616 30.3371 38.3616 28.0943C38.3616 25.8732 38.7501 24.2508 39.5281 23.2272C40.3061 22.2036 41.5206 21.692 43.1736 21.692C44.8266 21.692 46.0416 22.2026 46.8196 23.2232C47.5971 24.2438 47.9861 25.8651 47.9861 28.0863C47.9861 30.3457 47.6001 31.9802 46.8276 32.9902C46.0551 34.0002 44.8371 34.5047 43.1736 34.5047ZM43.1736 23.5941C42.4171 23.5941 41.8761 23.952 41.5496 24.6681C41.2226 25.3838 41.0596 26.5289 41.0596 28.1019C41.0596 29.6698 41.2266 30.8129 41.5616 31.5316C41.8966 32.2503 42.4341 32.6097 43.1741 32.6097C43.9141 32.6097 44.4516 32.2453 44.7866 31.516C45.1216 30.7862 45.2891 29.6431 45.2891 28.0858C45.2891 26.5178 45.1256 25.3773 44.7991 24.6641C44.4711 23.9509 43.9296 23.5941 43.1736 23.5941Z" fill="#C92A38"/>
<path d="M50.5526 24.278C51.9697 24.278 53.1186 23.12 53.1186 21.6915C53.1186 20.263 51.9697 19.105 50.5526 19.105C49.1354 19.105 47.9866 20.263 47.9866 21.6915C47.9866 23.12 49.1354 24.278 50.5526 24.278Z" fill="#C92A38"/>
</svg>
