<svg width="22" height="22" viewBox="0 0 22 22" fill="none" xmlns="http://www.w3.org/2000/svg">
<circle r="10.5" transform="matrix(1 0 0 -1 11 11)" stroke="white"/>
<path fill-rule="evenodd" clip-rule="evenodd" d="M9.78674 5.214L11.0437 7.67726C11.1457 7.91186 11.0777 8.30285 10.8059 8.45925L9.51496 9.16304C8.80153 9.55403 11.1796 14.2851 11.8251 13.7768L13.0142 12.8384C13.252 12.6429 13.5917 12.7602 13.7276 13.0339L14.9506 15.458C15.0865 15.7317 14.9166 16.0054 14.7468 16.24C14.4071 16.631 13.9994 16.9047 13.5917 17.1393C12.1988 17.9995 10.6021 16.24 9.82071 15.1452C9.03934 14.0896 7.88426 11.7827 7.47659 10.4924C7.03494 9.12394 6.52535 6.69978 7.85029 5.72229C8.22399 5.4095 8.63166 5.1749 9.10728 5.0576C9.37907 4.9794 9.68482 4.94031 9.78674 5.214Z" fill="white"/>
</svg>
