<svg width="17" height="17" viewBox="0 0 17 17" fill="none" xmlns="http://www.w3.org/2000/svg">
<path d="M8.49994 0.984375C7.90346 0.984375 7.41994 1.4715 7.41994 2.07237V7.51237H2.01994C1.42348 7.51237 0.939941 7.99949 0.939941 8.60039C0.939941 9.20129 1.42348 9.68839 2.01994 9.68839H7.41994V15.1284C7.41994 15.7293 7.90346 16.2164 8.49994 16.2164C9.09643 16.2164 9.57994 15.7293 9.57994 15.1284V9.68839H14.9799C15.5764 9.68839 16.0599 9.20129 16.0599 8.60039C16.0599 7.99949 15.5764 7.51237 14.9799 7.51237H9.57994V2.07237C9.57994 1.4715 9.09643 0.984375 8.49994 0.984375Z" fill="#474747"/>
</svg>
