<svg width="30" height="30" fill="none" xmlns="http://www.w3.org/2000/svg"><path d="M29.884.046S18.738.021 10.048 8.517a9.418 9.418 0 0 0-1.067 1.26C7.44 9.655 5.079 9.7 3.875 10.88 1.057 13.634.117 18.227.117 18.227l6.572-.918v1.775l3.724 3.641h1.815l-.94 6.427s4.698-.919 7.516-3.674c1.205-1.179 1.25-3.486 1.128-4.992a9.42 9.42 0 0 0 1.287-1.044C29.91 10.946 29.884.046 29.884.046zM17.495 9.732c0-1.34 1.111-2.427 2.483-2.427s2.483 1.086 2.483 2.427c0 1.342-1.111 2.428-2.483 2.428s-2.483-1.086-2.483-2.428z" fill="#CD2B37"/><path d="M7.624 23.953c-1.141 1.116-2.587.384-2.587.384s-.705-1.457.392-2.53c.094-.092.21-.144.32-.207l-.763-.747a2.831 2.831 0 0 0-1.093.655c-1.114 1.09-1.05 4.973-1.05 4.973s3.973.062 5.086-1.027a2.73 2.73 0 0 0 .67-1.068l-.762-.745c-.066.107-.119.22-.213.312z" fill="#CD2B37"/></svg>