<svg width="35" height="31" fill="none" xmlns="http://www.w3.org/2000/svg"><path d="M2.966 2.941C2.026 3.874 1.28 4.981.77 6.2a9.97 9.97 0 0 0 0 7.685 10.036 10.036 0 0 0 2.195 3.258l12.727 12.623a2.25 2.25 0 0 0 1.592.654 2.267 2.267 0 0 0 1.59-.654l12.728-12.623c.94-.933 1.686-2.04 2.195-3.258a9.97 9.97 0 0 0 0-7.685 10.036 10.036 0 0 0-2.195-3.258A10.131 10.131 0 0 0 28.32.764a10.198 10.198 0 0 0-7.75 0 10.131 10.131 0 0 0-3.284 2.177A10.131 10.131 0 0 0 14 .764a10.198 10.198 0 0 0-7.75 0 10.131 10.131 0 0 0-3.284 2.177z" fill="#CD2B37"/></svg>