<svg width="34" height="33" fill="none" xmlns="http://www.w3.org/2000/svg"><path d="M32.685 29.148l-14.21-14.043-2.43.744-.757 2.413L29.495 32.3a2.271 2.271 0 0 0 3.185 0c.431-.42.667-.976.667-1.57 0-.595-.236-1.157-.66-1.584z" fill="#CD2B37"/><path d="M21.831 12.348a.648.648 0 0 0-.268-.634L16.11 7.902l.079-6.604a.647.647 0 0 0-.36-.581.66.66 0 0 0-.687.058L9.788 4.716 3.465 2.597a.664.664 0 0 0-.674.155.645.645 0 0 0-.157.666L4.78 9.666.784 14.964a.64.64 0 0 0-.059.679c.111.22.32.336.589.355l6.689-.084 3.857 5.39a.657.657 0 0 0 .536.27c.033 0 .066 0 .105-.006a.669.669 0 0 0 .523-.446L15 14.816l6.381-1.952a.665.665 0 0 0 .451-.517z" fill="#CD2B37"/></svg>