<svg width="67" height="72" fill="none" xmlns="http://www.w3.org/2000/svg"><circle r="33.5" transform="matrix(1 0 0 -1 33.5 33.5)" fill="#fff"/><path d="M40.5 12.528c-4.124 0-7.5 3.403-7.5 7.56 0 .65.095 1.271.25 1.874l-9.14 6.285a7.421 7.421 0 0 0-4.61-1.607c-4.124 0-7.5 3.402-7.5 7.56 0 4.157 3.376 7.56 7.5 7.56a7.42 7.42 0 0 0 4.625-1.622l9.125 6.284a7.502 7.502 0 0 0-.25 1.89c0 4.157 3.376 7.56 7.5 7.56 4.124 0 7.5-3.403 7.5-7.56s-3.376-7.56-7.5-7.56c-2.391 0-4.53 1.142-5.906 2.914l-8.516-5.843A7.523 7.523 0 0 0 27 34.2c0-1.32-.342-2.556-.938-3.638l8.532-5.844c1.375 1.777 3.51 2.93 5.906 2.93 4.124 0 7.5-3.403 7.5-7.56s-3.376-7.56-7.5-7.56zm0 3.024c2.503 0 4.5 2.013 4.5 4.536 0 2.523-1.997 4.536-4.5 4.536S36 22.611 36 20.088c0-2.523 1.997-4.536 4.5-4.536zm-21 14.112c2.503 0 4.5 2.013 4.5 4.536 0 2.523-1.997 4.536-4.5 4.536S15 36.723 15 34.2c0-2.523 1.997-4.536 4.5-4.536zm21 14.112c2.503 0 4.5 2.013 4.5 4.536 0 2.523-1.997 4.536-4.5 4.536S36 50.835 36 48.312c0-2.523 1.997-4.536 4.5-4.536z" fill="#C92A38"/></svg>