<svg width="67" height="67" fill="none" xmlns="http://www.w3.org/2000/svg"><circle r="33.5" transform="matrix(1 0 0 -1 33.5 33.5)" fill="#fff"/><g clip-path="url(#clip0)" stroke="#C92A38" stroke-width="3" stroke-linecap="round" stroke-linejoin="round"><path d="M46.16 26.69h-9.75l1.81-7a2.799 2.799 0 0 0-2.71-3.5h-.62a1 1 0 0 0-.87.52c-1.81 3.45-8.32 9.48-8.32 9.48h-5.23a1.8 1.8 0 0 0-1.8 1.81v16a1.8 1.8 0 0 0 1.8 1.8h22.4a4.6 4.6 0 0 0 4.54-3.8l1.91-11.54a3.201 3.201 0 0 0-3.16-3.77zM25.69 45.8V26.2"/></g><defs><clipPath id="clip0"><path fill="#fff" transform="translate(11 9)" d="M0 0h44v55H0z"/></clipPath></defs></svg>