<svg width="32" height="33" fill="none" xmlns="http://www.w3.org/2000/svg"><path d="M7.178 0a7.08 7.08 0 0 0-5.07 2.182A7.581 7.581 0 0 0 0 7.427v17.988a7.581 7.581 0 0 0 2.109 5.245 7.08 7.08 0 0 0 5.07 2.182h17.386a7.08 7.08 0 0 0 5.07-2.182 7.581 7.581 0 0 0 2.108-5.245V7.427a7.581 7.581 0 0 0-2.109-5.245A7.08 7.08 0 0 0 24.564 0H7.179zm8.694 24.459a7.594 7.594 0 0 1-4.321-1.356 7.993 7.993 0 0 1-2.864-3.61 8.305 8.305 0 0 1-.443-4.65 8.135 8.135 0 0 1 2.128-4.119 7.7 7.7 0 0 1 3.981-2.202 7.535 7.535 0 0 1 4.493.458 7.84 7.84 0 0 1 3.49 2.963 8.245 8.245 0 0 1 1.311 4.47 8.19 8.19 0 0 1-2.277 5.689 7.647 7.647 0 0 1-5.498 2.357zm9.704-15.635a2.14 2.14 0 0 1-1.217-.382 2.252 2.252 0 0 1-.807-1.017 2.34 2.34 0 0 1-.125-1.31c.085-.44.293-.844.6-1.16a2.17 2.17 0 0 1 1.122-.621 2.123 2.123 0 0 1 1.266.129c.4.172.742.462.983.835a2.323 2.323 0 0 1 .202 2.127c-.11.275-.271.525-.475.736-.203.21-.445.377-.71.491a2.128 2.128 0 0 1-.839.172z" fill="#CD2B37"/></svg>