<svg width="67" height="69" fill="none" xmlns="http://www.w3.org/2000/svg"><circle r="33.5" transform="matrix(1 0 0 -1 33.5 33.5)" fill="#fff"/><path d="M34.05 35.671c-.862 0-21.132.062-21.132 5.439 0 4.22 12.36 5.16 17.632 5.37l-1.733 1.737a1.181 1.181 0 0 0-.005 1.661v.001c.454.46 1.192.464 1.649.005l3.321-3.327c.457-.458.497-1.236.083-1.733a2080.5 2080.5 0 0 0-3.04-3.623 1.16 1.16 0 0 0-1.643-.135 1.182 1.182 0 0 0-.134 1.656l1.173 1.393c-7.436-.304-12.075-1.43-13.99-2.346-.583-.278-.589-1.048-.007-1.328 2.31-1.104 8.485-2.42 17.827-2.42 9.343 0 15.517 1.316 17.826 2.42.582.279.576 1.05-.007 1.328-2 .954-6.957 2.142-14.971 2.384a1.183 1.183 0 0 0-1.145 1.204 1.156 1.156 0 0 0 1.187 1.145c4.85-.16 18.242-1 18.242-5.393 0-5.376-20.27-5.438-21.133-5.438zM16.114 33.73v-2.32h.26c1.237.713 2.396 1.07 3.476 1.07.853 0 1.52-.179 2-.536.481-.356.721-.878.721-1.563 0-.545-.187-.966-.563-1.262-.375-.296-1.151-.445-2.328-.445h-.713V26.82h.672c1.814 0 2.722-.558 2.722-1.674 0-.468-.195-.824-.584-1.066-.389-.242-.942-.363-1.66-.363-.968 0-2.102.348-3.403 1.045h-.243v-2.294c1.372-.517 2.692-.776 3.962-.776 1.501 0 2.637.277 3.406.833.77.555 1.155 1.292 1.155 2.213 0 .686-.214 1.286-.64 1.8-.427.515-.997.86-1.71 1.034v.114c.816.147 1.461.467 1.937.96.475.493.713 1.128.713 1.907 0 1.197-.454 2.156-1.361 2.875-.908.718-2.136 1.078-3.687 1.078-1.502-.001-2.879-.26-4.131-.777zM35.76 21.896v2.106h-.235c-.512-.25-1.132-.375-1.855-.375-2.209 0-3.44 1.165-3.695 3.495 1.07-.642 2.036-.963 2.9-.963 1.195 0 2.157.345 2.889 1.037.731.691 1.097 1.66 1.097 2.907 0 1.296-.438 2.353-1.316 3.172-.878.82-2.005 1.23-3.383 1.23-1.582 0-2.793-.492-3.633-1.475-.84-.982-1.26-2.402-1.26-4.258 0-2.281.555-4.032 1.665-5.252 1.11-1.219 2.72-1.828 4.832-1.828.747 0 1.411.068 1.995.204zm-5.792 6.557l-.009.335c-.005.18-.008.324-.008.433 0 2.297.74 3.446 2.22 3.446.595 0 1.074-.212 1.438-.637.365-.425.547-1.021.547-1.789 0-1.497-.776-2.245-2.325-2.245-.604 0-1.226.152-1.863.457zm13.206 6.052c-1.658 0-2.875-.508-3.65-1.523-.775-1.016-1.162-2.645-1.162-4.888 0-2.22.388-3.843 1.166-4.867.778-1.023 1.993-1.535 3.646-1.535 1.653 0 2.868.51 3.646 1.531.777 1.02 1.166 2.642 1.166 4.863 0 2.26-.386 3.894-1.158 4.904-.773 1.01-1.99 1.515-3.654 1.515zm0-10.91c-.757 0-1.298.357-1.624 1.073-.327.716-.49 1.86-.49 3.434 0 1.568.167 2.71.502 3.43.335.718.872 1.078 1.612 1.078.74 0 1.278-.365 1.613-1.094.335-.73.502-1.873.502-3.43 0-1.568-.163-2.709-.49-3.422-.328-.713-.87-1.07-1.625-1.07zm7.379.683a2.576 2.576 0 0 0 2.566-2.586 2.576 2.576 0 0 0-2.566-2.587 2.576 2.576 0 0 0-2.566 2.587 2.576 2.576 0 0 0 2.566 2.586z" fill="#C92A38"/></svg>