<svg width="22" height="22" fill="none" xmlns="http://www.w3.org/2000/svg"><circle r="10.5" transform="matrix(1 0 0 -1 11 11)" stroke="#fff"/><path fill-rule="evenodd" clip-rule="evenodd" d="M9.787 5.214l1.257 2.463c.102.235.034.626-.238.782l-1.291.704c-.713.391 1.665 5.122 2.31 4.614l1.19-.939c.237-.195.577-.078.713.196l1.223 2.424c.135.274-.034.547-.204.782-.34.391-.748.665-1.155.9-1.393.86-2.99-.9-3.771-1.995-.782-1.055-1.937-3.362-2.344-4.653-.442-1.368-.952-3.792.373-4.77.374-.313.782-.547 1.257-.664.272-.079.578-.118.68.156z" fill="#fff"/></svg>